<?xml version="1.0" encoding="UTF-8" standalone="no"?>
<svg
   version="1.1"
   id="Layer_1"
   x="0px"
   y="0px"
   width="911.41406"
   viewBox="0 0 911.4141 251.39976"
   enable-background="new 0 0 1200 628"
   xml:space="preserve"
   sodipodi:docname="vislog_logo.svg"
   inkscape:version="1.4.4 (dcaf3e7d9e, 2026-05-05)"
   height="251.39977"
   xmlns:inkscape="http://www.inkscape.org/namespaces/inkscape"
   xmlns:sodipodi="http://sodipodi.sourceforge.net/DTD/sodipodi-0.dtd"
   xmlns="http://www.w3.org/2000/svg"
   xmlns:svg="http://www.w3.org/2000/svg"><defs
   id="defs71" /><sodipodi:namedview
   id="namedview71"
   pagecolor="#505050"
   bordercolor="#eeeeee"
   borderopacity="1"
   inkscape:showpageshadow="0"
   inkscape:pageopacity="0"
   inkscape:pagecheckerboard="0"
   inkscape:deskcolor="#505050"
   inkscape:zoom="1.2834395"
   inkscape:cx="479.96029"
   inkscape:cy="119.21092"
   inkscape:window-width="1920"
   inkscape:window-height="1044"
   inkscape:window-x="0"
   inkscape:window-y="0"
   inkscape:window-maximized="1"
   inkscape:current-layer="Layer_1" />

<path
   fill="#f2f3f3"
   opacity="1"
   stroke="none"
   d="m 788.29958,221.02619 c -0.51753,-0.93806 -0.9135,-1.83529 -1.59063,-2.17932 -18.37664,-9.33819 -36.78468,-18.6144 -55.18117,-27.91363 -6.90216,-3.48899 -13.75317,-7.08242 -20.71805,-10.44063 -1.11029,-0.53537 -3.13978,-0.6498 -3.99507,0.011 -5.80319,4.48329 -13.74583,1.63056 -16.40238,-3.33992 -3.1916,-5.97143 -0.61427,-12.65191 6.07848,-15.58661 0.42599,-0.1868 0.8351,-0.41196 1.3726,-0.67921 0,-30.62294 0,-61.247403 0,-91.929583 -5.12215,-1.77335 -8.76556,-4.86026 -8.92362,-10.774244 -0.11986,-4.48454 2.57772,-8.55426 6.69246,-10.24786 4.77667,-1.96602 8.99986,-0.73689 13.62897,4.10645 9.00055,-4.55326 18.0535,-9.180192 27.14813,-13.723775 17.16738,-8.57666 34.37055,-17.081835 51.50506,-25.723359 0.8569,-0.432145 1.61483,-1.830674 1.72143,-2.8520382 0.58138,-5.569897 4.78645,-9.71029105 10.17725,-9.75312404963 C 805.20661,-0.04247325 809.58819,4.0011848 810.31467,9.4182338 c 0.15177,1.1316132 0.88973,2.6636852 1.80995,3.1434092 25.54643,13.317696 51.15128,26.523385 76.7484,39.74371 0.20423,0.10541 0.43567,0.15783 0.65549,0.2319 6.18752,-7.44952 15.44496,-7.22844 19.73086,0.4221 3.01043,5.37368 1.6288,12.221804 -5.75603,15.470634 -2.23486,0.98324 -1.70446,2.12501 -1.71371,3.34381 -0.0809,10.69407 -0.0566,21.38894 -0.0575,32.083593 0,18.92128 -6.7e-4,37.84259 -6.7e-4,56.48101 2.34928,1.56067 4.90605,2.66275 6.63493,4.53093 3.687,3.98372 3.33192,10.59416 -0.32641,14.47461 -3.81583,4.04755 -10.20609,4.60905 -14.64248,1.09632 -1.57047,-1.2434 -2.84585,-1.46167 -4.64471,-0.5314 -15.92904,8.23734 -31.89571,16.40188 -47.84859,24.59307 -9.15219,4.6993 -18.31944,9.37017 -27.41786,14.17144 -0.90381,0.47694 -1.97167,1.79005 -1.94928,2.68988 0.151,6.0689 -4.23456,11.91869 -11.41237,11.9256 -6.43661,0.006 -11.27774,-4.86312 -11.82492,-12.26266 m 6.70282,-97.20247 c -0.0981,0.24384 -0.19615,0.48768 -0.2445,0.65706 0,0 -0.069,-0.0571 -0.5918,-0.15413 -5.04486,2.55585 -10.08967,5.11169 -15.12544,7.66298 0.29015,0.77718 0.31645,1.27065 0.54358,1.39382 5.01523,2.71949 10.02405,5.45664 15.14868,7.95542 0.34995,0.17065 2.11306,-1.39341 2.31753,-2.34452 0.35822,-1.66664 0.0171,-3.48366 0.31942,-5.69071 -0.12296,-3.14029 -0.24592,-6.2806 -0.45384,-9.87904 -0.48894,0.14525 -0.97787,0.29052 -1.41582,0.44571 0,0 -0.009,-0.0512 -0.49781,-0.0466 m 26.61583,-22.51214 c 0,0 -0.0159,-0.0613 -0.48208,-0.3897 -4.18044,2.11584 -8.39136,4.17508 -12.51368,6.39866 -0.76056,0.41025 -1.59317,1.45326 -1.65332,2.25933 -0.22719,3.04692 -1.4176,5.33204 -4.06548,6.95127 -0.30595,0.18705 -0.18652,2.04014 0.20279,2.24863 6.34013,3.39587 12.75564,6.65097 19.6149,10.04063 0.0239,-0.26313 0.0479,-0.52627 0.0911,-1.19548 -0.005,-0.27029 -0.008,-0.54056 0.19985,-1.26834 -0.0658,-0.15468 -0.1317,-0.30934 -0.14065,-0.9392 -0.016,-0.47768 -0.0321,-0.95538 0.21442,-2.03482 -0.0843,-1.51221 -0.16865,-3.02442 -0.20198,-5.12852 -0.0131,-1.38575 -0.0261,-2.77153 0.1603,-4.60156 -0.0677,-0.14757 -0.13524,-0.29516 -0.16151,-0.92303 -0.0201,-0.48127 -0.0403,-0.96252 0.19849,-1.95876 -0.0833,-0.36491 -0.16679,-0.7298 -0.19918,-1.66899 -0.0219,-1.15272 -0.0438,-2.30545 0.19148,-3.97628 -0.0832,-0.36611 -0.16629,-0.73221 -0.19663,-1.57468 -0.0168,-0.47832 -0.0338,-0.95663 0.20903,-1.88556 -0.22932,-0.37894 -0.45863,-0.75793 -1.23122,-1.23472 -0.098,0.3026 -0.19601,0.60519 -0.23663,0.88112 m -7.7262,27.4346 c -0.48651,-0.20273 -0.97309,-0.40545 -1.80613,-0.95908 -3.33272,-1.63246 -6.66544,-3.2649 -10.18611,-4.98941 0,5.63372 -0.0671,11.00988 0.0339,16.38286 0.039,2.07425 1.19802,2.97989 3.24488,1.95933 2.9223,-1.45697 5.81298,-2.97717 9.02019,-4.43435 0.22979,-0.0424 0.36567,-0.1786 0.77035,-0.56297 0.099,-0.0864 0.19792,-0.17284 0.81301,-0.26113 1.76496,-0.94299 3.52992,-1.88598 6.287,-3.35906 -2.03732,-0.76709 -3.02492,-1.13896 -4.2061,-1.69549 0,0 -0.26204,-0.054 -0.50392,-0.46541 -1.01258,-0.38971 -2.0251,-0.77942 -3.14254,-1.22435 0,0 -0.10941,-0.0457 -0.32451,-0.39094 m -37.9309,-24.10557 c 0.0126,0.26305 0.0251,0.52612 -0.16645,1.43739 -0.0182,6.6609 -0.0921,13.32268 0.011,19.98172 0.014,0.9065 0.91343,1.79926 1.8888,2.62696 6.21156,-3.19793 12.42312,-6.39587 18.42941,-9.48813 -1.62589,-3.75467 -3.16434,-7.30736 -5.15255,-11.89866 -3.57146,-1.78353 -8.38089,-4.18526 -13.56955,-7.00783 -2.92504,0.44532 -1.29212,2.5102 -1.44071,4.34855 m 27.16038,-28.105743 c -0.003,1.24611 -0.45715,2.74514 0.0738,3.69173 1.71536,3.05848 4.25328,5.26663 7.67273,6.52656 4.85261,1.78794 8.91254,6.22839 14.86126,4.2566 0.37006,-0.12267 0.89413,0.32409 1.34496,0.32038 1.30297,-0.0108 2.75182,0.22823 3.8793,-0.25155 3.00896,-1.28036 5.94032,-2.78072 8.77292,-4.41795 1.0155,-0.58691 2.08026,-1.70009 2.37715,-2.77834 0.46805,-1.69942 -0.5635,-2.75748 -2.27528,-3.60698 -9.65085,-4.78948 -19.28289,-9.62834 -28.76318,-14.74351 -3.03533,-1.63774 -5.55018,-2.61087 -8.77212,0.41186 -0.16043,2.82087 -0.39039,5.64099 -0.42052,8.46326 -0.006,0.54289 0.77266,1.09418 1.24902,2.12794 m 0.0659,75.211703 c 0,0 -0.0793,0.017 -0.90822,0.13503 -0.0743,0.26903 -0.14854,0.53807 -0.4131,1.24585 0.0666,2.04359 0.13333,4.08716 0.16846,6.70354 0,1.16017 0,2.32032 0,3.39973 1.56906,1.0199 3.00766,1.95499 4.32525,2.81143 11.56998,-5.8748 22.98081,-11.60787 34.29867,-17.51891 1.02252,-0.53401 1.85661,-2.16663 2.00108,-3.38147 0.0943,-0.79365 -1.0286,-2.15454 -1.92704,-2.57356 -5.01639,-2.3395 -9.40245,-5.83029 -15.84734,-4.99067 -2.90695,0.3787 -5.52264,0.61702 -8.07294,2.02918 -1.84133,1.01956 -3.67961,2.22093 -5.6759,2.74946 -4.94115,1.30825 -6.24339,5.49458 -7.94892,9.39039 m -31.00969,-32.61813 c 0.01,-5.26887 0.0736,-10.5387 -0.02,-15.80571 -0.0165,-0.92971 -0.68892,-1.84776 -1.35558,-3.18781 -3.17347,-7.087633 -10.66219,-8.073703 -16.88666,-12.060623 -1.13171,1.5463 -3.16935,3.03939 -3.19517,4.56653 -0.24219,14.308353 -0.15952,28.622573 -0.12064,42.934953 0.007,2.85614 3.65379,5.06974 6.08515,3.60662 5.01769,-3.0194 11.50325,-4.06539 14.6973,-10.26367 0.19047,-0.5478 0.381,-1.09559 0.62219,-2.26542 -0.0128,-2.29239 -0.0257,-4.58478 0.17335,-7.52487 m 99.59459,34.75558 c 5.54845,2.80079 11.10796,5.58002 16.64196,8.409 4.64911,2.37658 8.07586,0.3802 8.07662,-4.78212 0.008,-27.03956 -0.15241,-54.08064 0.12432,-81.117343 0.0534,-5.20694 -0.61998,-9.22506 -5.69378,-11.47776 -10.81477,5.62464 -21.62076,11.24476 -32.41753,16.86005 0.18997,3.56277 -0.9643,6.3674 -4.10558,8.33247 -0.64404,0.40285 -1.03527,1.68665 -1.03816,2.56605 -0.0466,14.107323 -0.0586,28.215423 0.0902,42.321533 0.0127,1.21765 0.9322,2.78599 1.92324,3.56268 2.56249,2.00835 4.12608,4.35299 4.39499,7.65237 0.0656,0.80346 0.82344,1.84808 1.55495,2.2485 3.29048,1.80102 6.68613,3.41 10.44875,5.42457 m -168.4263,-12.01292 c -0.003,5.5235 -0.0185,11.04699 -0.005,16.57048 0.01,3.9084 3.26152,5.88025 6.67971,4.10199 8.62648,-4.48775 17.21805,-9.04673 25.92466,-13.37379 2.2201,-1.10331 3.56152,-2.00665 3.95712,-4.85071 0.29122,-2.09371 2.26496,-4.34711 4.09764,-5.71212 1.55356,-1.15712 1.95854,-2.13826 1.95182,-3.86778 -0.0524,-13.51459 -0.0744,-27.02976 0.0147,-40.543953 0.0154,-2.33222 -0.20821,-3.96632 -2.50013,-5.4421 -1.53947,-0.99132 -2.09893,-3.46935 -3.16864,-5.2388 -0.64302,-1.06375 -1.19598,-2.47894 -2.17851,-2.99408 -8.92588,-4.67983 -17.93009,-9.21075 -26.92745,-13.75354 -4.09878,-2.06947 -7.85168,0.30572 -7.85246,4.94491 -0.005,23.15136 0.003,46.302693 0.006,70.159493 m 33.67227,46.50384 c 17.58855,8.98822 35.17705,17.97643 52.22516,26.68847 2.29273,-1.52245 4.22971,-2.5926 5.88538,-3.99489 0.89048,-0.75418 1.82451,-2.07025 1.8407,-3.14629 0.12896,-8.56744 0.0544,-17.13816 0.0111,-25.70771 -0.007,-1.536 0.0697,-2.68487 -1.86438,-3.85883 -1.73012,-1.05014 -2.24486,-4.07383 -3.34731,-6.20006 -0.48762,-0.94057 -0.8832,-2.23187 -1.69211,-2.65714 -11.18799,-5.8816 -22.43205,-11.65706 -33.69816,-17.38815 -0.70355,-0.35791 -1.98879,-0.51378 -2.52165,-0.11683 -4.26686,3.17836 -8.28368,2.37773 -12.17152,-0.49983 -10.57059,5.46031 -21.04484,10.87082 -31.23113,16.13263 0.22006,2.19122 0.25415,4.06559 0.6507,5.85995 0.21239,0.96112 0.83725,2.19318 1.63631,2.60653 7.90023,4.08704 15.87598,8.02811 24.27686,12.28215 m 114.06748,5.61845 c 12.57585,-6.48294 25.15178,-12.96589 37.56096,-19.36293 0,-1.80966 0.18786,-3.35196 -0.0641,-4.81864 -0.17636,-1.02605 -0.70331,-2.42568 -1.50107,-2.84467 -9.01663,-4.73541 -18.14046,-9.26636 -27.17106,-13.97553 -1.69212,-0.88235 -2.83884,-1.20266 -4.69939,-0.0552 -2.70201,1.66642 -5.91983,1.98721 -8.588,-0.24067 -1.50232,-1.25446 -2.48017,-0.96341 -3.99843,-0.16363 -10.4686,5.51437 -20.97354,10.96152 -31.5289,16.30752 -1.9597,0.99252 -3.43437,1.7654 -3.72827,4.37043 -0.18411,1.63135 -1.55838,3.47444 -2.93003,4.53584 -1.61677,1.25096 -2.06798,2.5139 -2.04517,4.40437 0.0849,7.0467 0.18691,14.09911 -0.0123,21.14104 -0.11595,4.09687 -0.2886,7.85371 4.72474,9.30785 1.00969,0.29285 1.76983,1.44594 2.70727,2.25628 13.64185,-6.89446 27.22316,-13.75835 41.27388,-20.86198 M 793.05022,54.023783 c 1.24589,-1.02982 2.49178,-2.05967 3.9417,-3.25816 0,-7.455833 -0.2092,-15.205265 0.0751,-22.936535 0.18299,-4.974908 0.0626,-9.45891 -5.36009,-11.705954 -0.10102,-0.04183 -0.21534,-0.05156 -0.37184,-0.08736 -4.68396,2.324571 -9.4196,4.632521 -14.11807,7.013813 -21.20325,10.746209 -42.39658,21.511957 -63.591,32.275546 -1.50285,0.76322 -3.10531,1.11315 -3.19664,3.555214 -0.09,2.40772 1.43138,2.88443 2.87533,3.63971 8.60616,4.5014 17.26472,8.90373 25.83498,13.47192 1.83079,0.97587 3.24665,1.16345 5.04654,-0.0334 2.4925,-1.65743 5.34976,-2.28462 7.86362,-0.21593 2.63364,2.16718 4.75489,0.99391 7.1844,-0.25064 7.91888,-4.05663 15.85322,-8.09028 23.88244,-11.92149 4.27403,-2.03938 8.8766,-3.51668 9.93351,-9.546714 m 26.84386,11.322794 c 7.09732,3.60801 14.17203,7.26221 21.31656,10.77417 1.06964,0.52578 2.86676,0.9787 3.64632,0.45384 4.3414,-2.92298 8.30527,-2.64418 11.93661,0.85333 10.83989,-5.67278 21.39961,-11.19895 31.46334,-16.46555 1.09806,-3.494324 -1.27384,-4.302304 -3.22183,-5.319534 -8.09944,-4.22951 -16.23536,-8.38956 -24.34024,-12.608761 -17.36228,-9.038288 -34.71363,-18.097453 -52.01904,-27.12173 -1.05659,0.749434 -1.91721,1.720777 -2.97499,2.041163 -2.94717,0.89266 -3.41199,2.843437 -3.34576,5.621937 0.17906,7.516139 0.0658,15.039233 0.0681,22.559581 7e-4,2.72113 -0.75597,5.69147 2.92965,6.97481 0.69026,0.24034 1.42074,1.48901 1.45453,2.3006 0.16607,3.988574 3.23293,4.959234 6.06965,6.303884 2.21971,1.05215 4.35334,2.28572 7.01704,3.63226 m 16.37198,70.319953 c 1.89534,0.91822 3.82211,1.77738 5.67945,2.76685 3.95005,2.10435 6.53532,0.53221 6.54061,-4.06195 0.0149,-12.92035 -0.0956,-25.84232 0.0923,-38.760033 0.0501,-3.43471 -0.17057,-6.20299 -4.31318,-7.03721 -3.51939,1.80471 -7.3184,3.64419 -11.01132,5.67649 -3.83686,2.11149 -5.86679,5.62247 -6.04434,9.861653 -0.25541,6.09709 0.14311,12.22121 -0.10106,18.31922 -0.26346,6.58067 2.68707,10.74049 9.15757,13.23498 m -51.61175,26.23626 c 2.78773,1.47265 5.57551,2.94531 8.32979,4.40031 4.14355,-3.67804 4.14703,-3.67811 4.09769,-6.46593 -0.0497,-2.8074 0.96149,-6.39444 -0.394,-8.25244 -2.48321,-3.40383 -3.72353,-8.25812 -8.88064,-9.41842 -4.76508,-1.07208 -8.16597,-7.02367 -14.1351,-3.98105 -0.16403,0.0837 -0.51256,7.1e-4 -0.67113,-0.13007 -2.47637,-2.04607 -4.53312,-0.32291 -6.64803,0.73598 -2.61904,1.31129 -5.27222,2.56979 -7.79563,4.04751 -0.80098,0.46904 -1.79368,1.63476 -1.70533,2.36069 0.13578,1.11525 0.87195,2.60403 1.80099,3.10631 8.44989,4.56823 16.99688,8.95669 26.00139,13.59711 m 12.31649,-94.410993 c -1.22463,-1.42656 -2.44923,-2.85311 -3.59864,-4.19208 -11.59435,5.87304 -22.79973,11.66791 -34.13799,17.18986 -2.21248,1.07755 -2.86605,2.30788 -2.45446,4.91038 5.88332,1.33082 10.13157,8.10223 17.56014,5.57739 0.18229,-0.0619 0.48119,0.0546 0.66269,0.17945 2.47233,1.70012 4.57273,0.47301 6.75847,-0.73316 2.86376,-1.58032 5.76904,-3.0966 8.72371,-4.49868 4.58021,-2.17345 6.79715,-5.66442 6.52698,-10.77073 -0.12362,-2.33742 -0.0324,-4.68619 -0.0409,-7.66243 m 5.11129,24.57829 c -0.0246,3.16329 -0.093,6.3271 -0.0589,9.489793 0.0245,2.26378 1.95619,3.86374 3.80985,2.98638 4.01214,-1.89894 8.00951,-3.8697 11.81903,-6.136943 1.60657,-0.95615 2.5735,-2.41831 -0.33221,-3.72894 -3.78352,-1.70656 -7.2904,-4.01856 -10.9581,-5.99231 -2.76015,-1.48536 -3.94346,-0.69065 -4.27972,3.38202 m -8.25281,-3.48391 c -5.0744,2.49519 -10.14884,4.9904 -15.91973,7.82811 5.85446,3.05248 10.83232,5.780723 15.98026,8.137383 0.5468,0.25033 2.93227,-1.60046 3.02218,-2.60557 0.35318,-3.947933 0.10738,-7.947683 0.12757,-11.927953 0.0106,-2.09569 -0.99837,-2.4126 -3.21028,-1.43197 z"
   id="path2"
   style="stroke-width:0.705415" />
<path
   fill="#ffffff"
   opacity="1"
   stroke="none"
   d="m 664.36201,126.29423 c 0,12.99472 0.42376,25.50888 -0.14826,37.97736 -0.38446,8.37991 -1.30926,16.93634 -3.54254,24.98358 -3.46399,12.48166 -12.63757,20.44958 -24.48883,24.95718 -19.78613,7.52557 -39.83118,7.09052 -59.57861,-0.0339 -11.21857,-4.04737 -18.7392,-12.39475 -23.05854,-23.5159 -0.32946,-0.8483 -0.0433,-1.9357 -0.0433,-2.81992 7.73352,-1.74499 15.41772,-3.51916 23.12292,-5.19668 2.90186,-0.63178 5.27228,-0.9737 7.3556,2.57754 8.11346,13.83041 34.76812,12.92835 42.3728,2.35434 2.42328,-3.36941 4.38702,-7.69272 4.79187,-11.75583 0.75604,-7.58749 0.21728,-15.30405 0.21728,-23.34378 -3.13678,3.59183 -6.07434,6.94205 -8.99694,10.30524 -4.8982,5.63659 -11.71424,7.72009 -18.5564,8.33722 -15.12811,1.36438 -29.33319,-1.46594 -40.2309,-13.19812 -8.49243,-9.1428 -12.66315,-20.22504 -14.33008,-32.59446 -1.75628,-13.03195 -1.01501,-25.705073 3.12635,-38.129913 5.19635,-15.59009 14.56134,-27.2534 31.04974,-31.933755 18.40399,-5.22409 36.48572,-1.29429 47.76099,17.241095 0,-6.32379 0,-11.99458 0,-17.933135 11.14483,0 21.88128,0 33.17688,0 0,23.710145 0,47.465978 0,71.721808 m -48.65522,18.13931 c 6.78101,-2.5856 11.21076,-7.89416 13.46943,-14.25741 3.90844,-11.01126 3.71038,-22.43711 0.1372,-33.615243 -2.96454,-9.2742 -11.88433,-16.7189 -19.72595,-17.30313 -11.37683,-0.84762 -19.05707,4.48206 -23.83282,14.26733 -4.70234,9.634713 -3.9339,19.893133 -2.60846,30.164863 1.02154,7.91684 4.50952,14.34134 11.0534,18.87998 6.47254,4.48916 13.63739,4.42556 21.5072,1.86361 z"
   id="path3" />
<path
   fill="#ffffff"
   opacity="1"
   stroke="none"
   d="m 74.342236,131.42686 c 0.870498,3.59265 1.723868,6.76419 2.971048,11.39938 3.4542,-12.84497 6.26877,-24.26919 9.61874,-35.53421 4.5216,-15.204953 9.42772,-30.296053 14.219446,-45.419983 4.69528,-14.819535 9.40141,-29.636345 14.27752,-44.396615 0.42311,-1.28079 2.13301,-3.01904 3.27608,-3.04254 11.138,-0.22899 22.28261,-0.13779 34.24496,-0.13779 -18.13392,52.918165 -36.08232,105.294908 -54.142786,157.998668 -13.41678,0 -27.061795,0.086 -40.701588,-0.14145 -1.275147,-0.0213 -3.188553,-1.78378 -3.674744,-3.14248 C 46.119778,145.78352 37.987102,122.49333 29.815121,99.217197 19.955627,71.134557 10.096088,43.051912 0,14.295462 c 12.10157,0 23.675087,-0.0778 35.243408,0.13157 1.049008,0.019 2.610047,1.70362 3.015518,2.92055 9.01717,27.06332 18.021794,54.132135 26.759541,81.286585 3.437454,10.682673 6.223785,21.574863 9.323769,32.792693 z"
   id="path4" />
<path
   fill="#ffffff"
   opacity="1"
   stroke="none"
   d="m 504.58448,62.015797 c 14.33087,9.18386 21.30176,22.48671 23.76544,38.510613 2.0091,13.06738 1.79645,25.97488 -2.93823,38.56402 -7.02313,18.67408 -19.77271,30.45511 -39.73047,34.28577 -15.44202,2.96393 -30.18555,1.76816 -44.24448,-5.52579 -14.36245,-7.45135 -22.31643,-19.91748 -25.95712,-35.08007 -4.63556,-19.30594 -3.10532,-38.206613 7.49146,-55.450473 6.91629,-11.25471 17.2192,-18.62481 30.11065,-21.912375 14.7395,-3.75887 29.36289,-2.8243 43.69055,2.11137 2.68384,0.92453 5.04187,2.794605 7.8122,4.496935 m -47.18332,81.837663 c 10.57227,9.63312 28.85315,6.92777 35.55899,-10.09628 5.65497,-14.35629 5.41901,-29.18979 -1.97418,-43.337863 -6.43131,-12.30713 -24.88412,-15.22314 -34.75235,-5.53165 -5.97626,5.86924 -8.26911,13.33533 -9.25705,21.272403 -1.70194,13.6727 -0.47577,26.66642 10.42459,37.69339 z"
   id="path5" />
<path
   fill="#ffffff"
   opacity="1"
   stroke="none"
   d="m 332.40028,146.16795 c -5.8147,17.05719 -18.89994,24.25741 -35.08228,27.0408 -6.90411,1.18753 -14.01663,2.26834 -20.95728,1.90878 -14.50872,-0.75174 -28.04974,-4.63662 -38.49798,-15.77319 -4.43015,-4.72195 -6.87639,-9.64963 -9.48723,-20.50888 5.08382,-0.72846 10.14171,-1.52481 15.21974,-2.16058 5.0214,-0.6287 10.06311,-1.09522 15.33765,-1.6587 3.88751,11.98603 12.57248,17.00837 24.24902,16.04233 4.82117,-0.39886 10.1023,-2.51538 13.96866,-5.4429 5.55121,-4.20318 4.47339,-11.53934 -2.06372,-14.15399 -7.07657,-2.83042 -14.69516,-4.40381 -22.17154,-6.11331 -10.95749,-2.50537 -21.95645,-4.28846 -31.1257,-11.92685 -12.41126,-10.33914 -13.24507,-29.727243 -5.35239,-41.719333 6.95084,-10.56114 17.74637,-15.004535 29.25406,-17.208275 14.42346,-2.76212 28.9195,-2.07895 42.75,3.79059 11.4086,4.841695 18.76257,13.242055 21.89102,25.271355 0.12204,0.46933 0.0262,0.99588 0.028,1.49575 0.002,0.62275 5.8e-4,1.24546 5.8e-4,1.96582 -8.52982,1.12003 -16.74652,2.16449 -24.9512,3.2963 -2.61719,0.36105 -3.95008,-0.55444 -5.13111,-3.04785 -3.63064,-7.66519 -10.84109,-11.46414 -19.33377,-10.10123 -4.20117,0.6742 -8.40066,1.90698 -12.33853,3.52551 -4.2612,1.75138 -5.34302,6.01471 -4.00455,9.74659 0.9657,2.69247 3.754,5.88192 6.3667,6.63308 11.10217,3.191933 22.44455,5.546543 33.69431,8.227393 9.92041,2.36407 19.03561,6.4093 25.01187,15.00058 3.80939,5.47629 4.64474,12.08148 3.75229,18.76587 -0.29813,2.23288 -0.65955,4.45724 -1.02664,7.10434 z"
   id="path6" />
<path
   fill="#ffffff"
   opacity="1"
   stroke="none"
   d="m 373.36219,14.294452 c 5.47574,0 10.45294,0 15.71408,0 0,52.621385 0,105.021908 0,157.711208 -10.33014,0 -20.73553,0 -31.42868,0 0,-52.33402 0,-104.734533 0,-157.711208 5.01819,0 10.11716,0 15.7146,0 z"
   id="path7" />
<path
   fill="#ffffff"
   opacity="1"
   stroke="none"
   d="m 172.36242,82.294227 c 0,-9.47638 0,-18.45276 0,-27.713625 10.95349,0 21.69182,0 32.71599,0 0,39.005895 0,78.073128 0,117.427218 -10.66989,0 -21.40815,0 -32.71599,0 0,-29.69562 0,-59.45462 0,-89.713593 z"
   id="path8" />
<path
   fill="#ffffff"
   opacity="1"
   stroke="none"
   d="m 327.3043,199.84764 c 4.39724,-0.38422 8.57422,-0.12134 12.62036,-0.72928 1.60855,-0.24167 2.92728,-2.4122 4.37793,-3.70465 -0.18475,-0.45258 -0.36951,-0.90519 -0.55423,-1.35779 2.46435,0.47284 4.92874,0.94565 8.34589,1.60129 -1.572,3.06591 -2.92246,5.69976 -4.66889,9.10592 2.37708,3.55078 3.19821,8.42289 -0.0444,13.44794 -2.82657,4.38028 -7.22248,4.88788 -11.89023,5.16739 -2.05078,0.12274 -4.04651,1.16467 -6.06723,1.78924 2.10266,0.70893 4.15875,1.67047 6.31869,2.06839 3.35932,0.61881 6.86884,0.52765 10.16993,1.33176 4.55575,1.10968 7.06787,4.7381 7.28418,9.08237 0.21533,4.32394 -1.61872,8.47226 -5.75708,10.57617 -7.56455,3.84564 -15.48853,4.14981 -23.44425,1.16376 -3.20416,-1.20261 -6.31726,-2.4354 -6.70837,-6.78675 -0.42307,-4.707 1.10016,-7.86093 5.57342,-9.0618 -0.89807,-2.6015 -2.61673,-5.07067 -2.22299,-7.13735 0.40277,-2.1138 2.87659,-3.83298 4.45117,-5.73374 -7.16611,-7.64328 -6.44128,-15.55066 2.21613,-20.82287 m 14.40481,41.5494 c 2.38556,-3.44781 0.76395,-4.88192 -2.71212,-5.06738 -3.12238,-0.16653 -6.27283,-0.18899 -9.38462,0.0573 -0.95709,0.0758 -2.16516,1.07407 -2.62265,1.97333 -0.32168,0.63235 0.18445,2.01105 0.74887,2.71185 2.28702,2.83951 9.00827,3.24417 13.97052,0.32489 m -3.25042,-34.45343 c -2.46445,-2.25134 -5.43528,-2.26962 -7.13465,0.2052 -1.13876,1.65842 -1.20498,4.83109 -0.4042,6.76987 0.53372,1.29218 3.57199,2.44809 5.25519,2.18231 3.622,-0.57202 3.32101,-3.84781 3.17758,-6.67132 -0.033,-0.64997 -0.17502,-1.29438 -0.89392,-2.48606 z"
   id="path9" />
<path
   fill="#ffffff"
   opacity="1"
   stroke="none"
   d="m 204.19477,32.791632 c -6.11211,7.25824 -13.53226,9.06753 -22.09917,6.48912 -7.07899,-2.13059 -12.03257,-9.44667 -11.69851,-16.69701 0.32942,-7.15027 6.18841,-13.7201202 13.30731,-15.2916902 9.94316,-2.19504 19.67538,2.48717 22.0569,10.9798202 1.33751,4.76971 1.33319,9.67095 -1.56653,14.51976 z"
   id="path10" />
<path
   fill="#ffffff"
   opacity="1"
   stroke="none"
   d="m 506.89784,224.33073 c -0.0488,-5.17005 -0.68793,-10.3132 0.65435,-14.87314 3.46887,-11.78455 21.1518,-15.76822 28.78266,-6.2601 3.13568,3.90713 3.6361,9.92926 5.65033,15.92764 -9.59711,0 -17.49787,0 -25.39862,0 -0.34797,0.41385 -0.69593,0.8277 -1.04383,1.24155 1.71008,2.21493 2.97229,5.41019 5.22424,6.43896 4.56672,2.08615 9.05604,0.92816 12.24555,-3.8446 2.27569,1.41485 4.38141,2.72403 6.41766,3.99002 -2.03961,6.57999 -7.23272,9.62753 -16.31427,9.2948 -7.97192,-0.29205 -14.22503,-4.57849 -16.21807,-11.91513 m 10.41821,-12.55506 c -0.0361,0.49048 -0.0721,0.98099 -0.10822,1.47147 4.34815,0 8.69623,0 13.18103,0 -0.19818,-4.15649 -2.04077,-6.34717 -5.45318,-6.89816 -3.69184,-0.59613 -6.12848,1.28747 -7.61963,5.42669 z"
   id="path11" />
<path
   fill="#ffffff"
   opacity="1"
   stroke="none"
   d="m 384.04227,198.29515 c 11.88904,2.60836 14.51728,8.81015 12.98392,20.99887 -3.68954,0 -7.46301,3e-5 -11.23651,3e-5 -3.64532,0 -7.29062,-3e-5 -12.67389,-3e-5 1.84711,2.94256 2.74008,6.19262 4.51022,6.77453 2.96116,0.97348 8.02131,1.59571 9.45896,-0.0407 3.37167,-3.83764 5.5152,-2.17608 8.32648,-0.20532 0.51574,0.36157 1.13299,0.57828 1.70337,0.86194 -0.48969,8.04071 -12.0496,11.02371 -19.41065,9.30447 -10.09717,-2.35824 -15.21054,-7.44919 -13.26675,-21.90799 1.55416,-11.56088 7.14398,-15.78515 19.60485,-15.78582 m -1.39044,8.00088 c -5.04541,0.11676 -7.54922,2.22128 -8.02115,6.73532 4.5131,0 9.02616,0 15.04511,0 -2.60846,-2.82251 -4.40586,-4.76739 -7.02396,-6.73532 z"
   id="path12" />
<path
   fill="#ffffff"
   opacity="1"
   stroke="none"
   d="m 204.1007,227.30692 c 3.64638,-0.84237 6.89787,-1.69558 10.14938,-2.54876 -0.11015,-0.45542 -0.2203,-0.9108 -0.33046,-1.36618 0.31832,0 0.70285,-0.11841 0.94533,0.0172 6.92008,3.86957 7.01071,6.66467 0.0833,10.62601 -9.69957,5.54666 -24.09198,0.89523 -26.74735,-8.36805 -2.22026,-7.74539 -1.98173,-17.71496 4.49869,-23.07263 5.20612,-4.3041 13.38826,-6.74157 22.0995,-1.44369 3.98507,2.42361 8.15981,11.94473 6.39307,16.12008 -0.43918,1.03797 -2.5359,1.89173 -3.89839,1.93375 -6.46863,0.19959 -12.94679,0.0892 -19.81566,0.0892 -0.33899,4.81937 1.73535,7.31656 6.62259,8.01303 m 7.24171,-16.02133 c -1.22964,-3.86618 -4.18484,-5.93777 -7.80957,-4.78216 -2.59047,0.82589 -4.56327,3.58911 -6.8117,5.48785 0.33175,0.59683 0.66351,1.1937 0.99527,1.79053 4.54268,-0.54572 9.08535,-1.09143 13.626,-2.49622 z"
   id="path13" />
<path
   fill="#ffffff"
   opacity="1"
   stroke="none"
   d="m 416.41059,235.29402 c -2.53943,0.0903 -4.20831,0.30569 -4.13751,-2.93058 0.23633,-10.80581 0.0896,-21.62002 0.0896,-32.7496 3.22067,0 6.29812,0 9.77887,0 0.11206,0.9407 0.25006,2.09921 0.33172,2.78482 3.29828,-1.39972 6.36991,-3.38919 9.68921,-3.97479 7.88404,-1.39087 13.6604,3.95169 14.11841,13.10812 0.38855,7.76782 0.0802,15.5705 0.0802,23.55686 -3.4433,0 -6.51279,0 -9.99866,0 0,-7.10572 0.008,-14.05591 -0.004,-21.00611 -0.005,-3.20273 0.0719,-6.47586 -4.41189,-6.79092 -4.3819,-0.30789 -8.02588,0.78442 -8.52656,5.80246 -0.71615,7.17725 -1.03979,14.39364 -1.57241,22.19974 -1.44519,0 -3.20414,0 -5.43726,0 z"
   id="path14" />
<path
   fill="#ffffff"
   opacity="1"
   stroke="none"
   d="m 113.36196,217.585 c 0,6.08228 0,11.69864 0,17.50769 -3.44945,0 -6.51677,0 -9.79237,0 0,-11.89575 0,-23.62408 0,-35.57565 3.22058,0 6.31619,0 9.58824,0 0.11818,1.09088 0.23808,2.19778 0.39351,3.63244 0.623,-0.45111 1.16047,-0.75393 1.59312,-1.16668 5.46224,-5.21066 14.30753,-5.04071 18.91547,0.63843 1.22774,1.51315 2.15019,3.73813 2.20068,5.66281 0.23067,8.79443 0.1013,17.59829 0.1013,26.70392 -3.24069,0 -6.31044,0 -9.99949,0 0,-6.9238 -0.0256,-14.01078 0.0125,-21.09739 0.0154,-2.86126 0.31016,-5.98068 -3.51203,-6.53143 -4.04681,-0.58307 -7.64256,0.11554 -8.56375,5.07202 -0.29117,1.56659 -0.62364,3.12552 -0.93721,5.15384 z"
   id="path15" />
<path
   fill="#ffffff"
   opacity="1"
   stroke="none"
   d="m 471.86747,222.29563 c 1.68948,4.10907 4.59143,6.0141 8.34445,4.84723 2.6908,-0.83658 4.94406,-3.0805 7.39252,-4.69656 -0.19745,-0.422 -0.3949,-0.844 -0.59238,-1.26602 2.41544,1.17672 4.83084,2.35345 7.21591,3.51541 -1.31915,8.28256 -8.03964,12.33658 -17.19784,11.64117 -9.41965,-0.71527 -15.85535,-7.77005 -16.61807,-18.68576 -0.60358,-8.6383 6.94772,-18.38135 15.50616,-19.26761 8.09717,-0.83847 16.72357,1.57441 17.40308,9.10428 -1.24195,1.01493 -2.33753,2.44489 -3.74866,2.90341 -1.25189,0.40683 -3.50238,0.2692 -4.18488,-0.55801 -2.37283,-2.87619 -5.2221,-3.47119 -8.4421,-2.49124 -3.66904,1.11664 -5.41947,3.95929 -5.55591,7.70962 -0.0842,2.3147 0.10284,4.63922 0.47772,7.24408 z"
   id="path16" />
<path
   fill="#ffffff"
   opacity="1"
   stroke="none"
   d="m 157.01499,232.44526 c -1.42837,-8.29938 -2.55788,-16.32864 -3.77342,-24.9697 -0.52202,-0.0572 -2.05177,-0.22491 -3.7151,-0.40725 0,-2.49668 0,-4.78385 0,-7.42212 1.42976,-0.19177 2.9681,-0.39813 4.46786,-0.59927 0.68927,-6.9788 0.68927,-6.9788 10.2059,-8.71143 0,2.82114 0,5.59106 0,8.74438 3.38355,0 6.46327,0 9.85231,0 0,2.7717 0,5.17939 0,7.97059 -2.89113,0 -5.97395,0 -9.68385,0 0,5.44314 -0.26477,10.54623 0.0777,15.60827 0.31473,4.65131 2.27784,5.29618 9.30997,3.65122 0.47722,1.13128 1.02403,2.26205 1.43202,3.44085 0.41506,1.19919 0.69333,2.44571 1.03908,3.69895 -6.71196,4.26221 -13.90758,4.00232 -19.21251,-1.00449 z"
   id="path17" />
<path
   fill="#ffffff"
   opacity="1"
   stroke="none"
   d="m 274.36198,213.27848 c 0,3.48981 0.057,6.48389 -0.0175,9.47477 -0.0627,2.51449 0.10074,4.21743 3.42786,4.8648 1.22244,0.23783 2.0194,4.06293 2.38064,6.35114 0.0914,0.57885 -2.17996,2.10711 -3.45996,2.23196 -7.99539,0.78027 -11.90649,-1.83285 -12.20682,-10.57226 -0.46701,-13.58951 -0.12344,-27.20688 -0.12344,-41.0727 3.32791,0 6.39377,0 9.99924,0 0,9.39035 0,18.8078 0,28.72229 z"
   id="path18" />
<path
   fill="#ffffff"
   opacity="1"
   stroke="none"
   d="m 251.0973,234.89714 c -9.57202,3.93167 -15.2161,0.17727 -15.62107,-10.85001 -0.48013,-13.07364 -0.11285,-26.17841 -0.11285,-39.51004 3.36197,0 6.42722,0 9.9986,0 0,11.59888 -0.082,23.17212 0.051,34.74286 0.0389,3.3815 -1.56076,7.76071 4.43762,8.56378 0.77533,0.10379 0.99634,4.3482 1.24668,7.05341 z"
   id="path19" />
<path
   fill="#ffffff"
   opacity="1"
   stroke="none"
   d="m 85.361954,205.29515 c 0,10.14132 0,19.78298 0,29.71096 -3.61199,0 -7.01857,0 -10.715458,0 0,-15.65826 0,-31.3963 0,-47.42383 3.328038,0 6.734618,0 10.715458,0 0,5.68058 0,11.44691 0,17.71287 z"
   id="path20" />
<path
   fill="#ffffff"
   opacity="1"
   stroke="none"
   d="m 293.3624,230.18095 c 0,-10.45728 0,-20.42481 0,-30.638 3.35852,0 6.43039,0 9.75357,0 0,11.7767 0,23.51834 0,35.50635 -3.1199,0 -6.19149,0 -9.75357,0 0,-1.48758 0,-2.93311 0,-4.86835 z"
   id="path21" />
<path
   fill="#ffffff"
   opacity="1"
   stroke="none"
   d="m 293.3639,186.357 c 4.9194,-2.95504 8.87024,-2.79086 9.9747,0.55967 0.69626,2.11209 0.43713,6.40625 -0.6153,6.85482 -2.50454,1.06742 -6.04718,1.17905 -8.52853,0.14157 -1.09525,-0.45791 -0.6319,-4.64358 -0.83087,-7.55606 z"
   id="path22" />





























<path
   fill="#626364"
   opacity="1"
   stroke="none"
   d="m 874.78498,141.39591 c -0.0677,-0.75918 0.23639,-1.48159 0.86115,-2.24844 0.0507,0.73209 -0.21943,1.50864 -0.86115,2.24844 z"
   id="path52" />





<path
   fill="#111111"
   opacity="1"
   stroke="none"
   d="m 911.41407,133.96882 c -0.42981,0.34772 -0.9198,0.3707 -1.77466,0.34335 0.32825,-0.25625 1.02136,-0.46218 1.77466,-0.34335 z"
   id="path58" />


<path
   fill="#111111"
   opacity="1"
   stroke="none"
   d="m 908.98743,134.20667 c 0.19233,0.3335 0.0383,0.6702 -0.43951,1.02357 -0.18488,-0.32902 -0.0458,-0.67469 0.43951,-1.02357 z"
   id="path61" />








<path
   id="path70"
   d="m 780.37109,157.54797 v 0.0937 c 0.009,-3.4e-4 0.0181,-0.002 0.0274,-0.002 -0.001,-0.009 -0.003,-0.0166 -0.004,-0.0254 -0.008,-0.0217 -0.0159,-0.0444 -0.0234,-0.0664 z" />
<path
   id="path71"
   d="m 780.37109,106.29016 c 0,0.2792 10e-6,0.55791 0,0.83594 0.0289,-0.18541 0.0494,-0.36691 0.0215,-0.5586 -0.006,-0.0922 -0.0127,-0.18534 -0.0215,-0.27734 z" />
</svg>
